<mxfile host="Electron" agent="Mozilla/5.0 (Macintosh; Intel Mac OS X 10_15_7) AppleWebKit/537.36 (KHTML, like Gecko) draw.io/26.0.16 Chrome/132.0.6834.196 Electron/34.2.0 Safari/537.36" version="26.0.16">
  <diagram name="Страница — 1" id="AA9cZ-glA_Fp__WyKTjR">
    <mxGraphModel dx="1694" dy="1814" grid="1" gridSize="10" guides="1" tooltips="1" connect="1" arrows="1" fold="1" page="1" pageScale="1" pageWidth="827" pageHeight="1169" math="0" shadow="0">
      <root>
        <mxCell id="0" />
        <mxCell id="1" parent="0" />
        <mxCell id="_nLx_mnxx4Ln0NtucxEp-5" style="edgeStyle=orthogonalEdgeStyle;rounded=0;orthogonalLoop=1;jettySize=auto;html=1;exitX=0.25;exitY=0;exitDx=0;exitDy=0;entryX=0.5;entryY=1;entryDx=0;entryDy=0;" edge="1" parent="1" source="_nLx_mnxx4Ln0NtucxEp-1" target="_nLx_mnxx4Ln0NtucxEp-2">
          <mxGeometry relative="1" as="geometry" />
        </mxCell>
        <mxCell id="_nLx_mnxx4Ln0NtucxEp-6" value="Управление&lt;div&gt;устройствами умного дома&lt;/div&gt;" style="edgeLabel;html=1;align=center;verticalAlign=middle;resizable=0;points=[];" vertex="1" connectable="0" parent="_nLx_mnxx4Ln0NtucxEp-5">
          <mxGeometry x="0.6235" y="-3" relative="1" as="geometry">
            <mxPoint as="offset" />
          </mxGeometry>
        </mxCell>
        <mxCell id="_nLx_mnxx4Ln0NtucxEp-1" value="&lt;font style=&quot;font-size: 36px;&quot;&gt;PropDevelopment&lt;/font&gt;&lt;div&gt;&lt;font style=&quot;font-size: 14px;&quot;&gt;Осуществляет сделки с объектами недвижимости, предоставляет услуги по управлению ЖКХ&lt;/font&gt;&lt;/div&gt;" style="rounded=0;whiteSpace=wrap;html=1;" vertex="1" parent="1">
          <mxGeometry x="2740" y="940" width="340" height="360" as="geometry" />
        </mxCell>
        <mxCell id="_nLx_mnxx4Ln0NtucxEp-2" value="&lt;font style=&quot;font-size: 36px;&quot;&gt;SmartHome&lt;/font&gt;&lt;div&gt;&lt;font size=&quot;3&quot; style=&quot;&quot;&gt;Компонент управления устройствами умного дома&amp;nbsp;&lt;/font&gt;&lt;/div&gt;" style="rounded=0;whiteSpace=wrap;html=1;" vertex="1" parent="1">
          <mxGeometry x="2730" y="490" width="330" height="180" as="geometry" />
        </mxCell>
        <mxCell id="_nLx_mnxx4Ln0NtucxEp-4" style="edgeStyle=orthogonalEdgeStyle;rounded=0;orthogonalLoop=1;jettySize=auto;html=1;exitX=0.5;exitY=1;exitDx=0;exitDy=0;exitPerimeter=0;entryX=0.5;entryY=0;entryDx=0;entryDy=0;" edge="1" parent="1" source="_nLx_mnxx4Ln0NtucxEp-3" target="_nLx_mnxx4Ln0NtucxEp-1">
          <mxGeometry relative="1" as="geometry">
            <Array as="points">
              <mxPoint x="3140" y="730" />
              <mxPoint x="3140" y="880" />
              <mxPoint x="2910" y="880" />
            </Array>
          </mxGeometry>
        </mxCell>
        <mxCell id="_nLx_mnxx4Ln0NtucxEp-7" value="Использование функционала&amp;nbsp;&lt;div&gt;PropDevelopment и партнеров&lt;/div&gt;" style="edgeLabel;html=1;align=center;verticalAlign=middle;resizable=0;points=[];" vertex="1" connectable="0" parent="_nLx_mnxx4Ln0NtucxEp-4">
          <mxGeometry x="0.0581" y="-2" relative="1" as="geometry">
            <mxPoint x="-65" y="-18" as="offset" />
          </mxGeometry>
        </mxCell>
        <object placeholders="1" c4Name="Клиент" c4Type="Person" c4Description="Клиент" label="&lt;font style=&quot;font-size: 16px&quot;&gt;&lt;b&gt;%c4Name%&lt;/b&gt;&lt;/font&gt;&lt;div&gt;[%c4Type%]&lt;/div&gt;&lt;br&gt;&lt;div&gt;&lt;font style=&quot;font-size: 11px&quot;&gt;&lt;font color=&quot;#cccccc&quot;&gt;%c4Description%&lt;/font&gt;&lt;/div&gt;" id="_nLx_mnxx4Ln0NtucxEp-3">
          <mxCell style="html=1;fontSize=11;dashed=0;whiteSpace=wrap;fillColor=#083F75;strokeColor=#06315C;fontColor=#ffffff;shape=mxgraph.c4.person2;align=center;metaEdit=1;points=[[0.5,0,0],[1,0.5,0],[1,0.75,0],[0.75,1,0],[0.5,1,0],[0.25,1,0],[0,0.75,0],[0,0.5,0]];resizable=0;" vertex="1" parent="1">
            <mxGeometry x="3120" y="550" width="200" height="180" as="geometry" />
          </mxCell>
        </object>
        <mxCell id="_nLx_mnxx4Ln0NtucxEp-9" style="edgeStyle=orthogonalEdgeStyle;rounded=0;orthogonalLoop=1;jettySize=auto;html=1;exitX=0;exitY=0.75;exitDx=0;exitDy=0;exitPerimeter=0;entryX=1;entryY=0.25;entryDx=0;entryDy=0;" edge="1" parent="1" source="_nLx_mnxx4Ln0NtucxEp-8" target="_nLx_mnxx4Ln0NtucxEp-1">
          <mxGeometry relative="1" as="geometry">
            <Array as="points">
              <mxPoint x="3320" y="1065" />
              <mxPoint x="3320" y="1030" />
            </Array>
          </mxGeometry>
        </mxCell>
        <mxCell id="_nLx_mnxx4Ln0NtucxEp-10" value="Аналитика данных" style="edgeLabel;html=1;align=center;verticalAlign=middle;resizable=0;points=[];" vertex="1" connectable="0" parent="_nLx_mnxx4Ln0NtucxEp-9">
          <mxGeometry x="-0.4796" y="2" relative="1" as="geometry">
            <mxPoint x="24" y="-17" as="offset" />
          </mxGeometry>
        </mxCell>
        <object placeholders="1" c4Name="Аналитик BI" c4Type="Person" c4Description="Анализирует данные и готовит отчётность" label="&lt;font style=&quot;font-size: 16px&quot;&gt;&lt;b&gt;%c4Name%&lt;/b&gt;&lt;/font&gt;&lt;div&gt;[%c4Type%]&lt;/div&gt;&lt;br&gt;&lt;div&gt;&lt;font style=&quot;font-size: 11px&quot;&gt;&lt;font color=&quot;#cccccc&quot;&gt;%c4Description%&lt;/font&gt;&lt;/div&gt;" id="_nLx_mnxx4Ln0NtucxEp-8">
          <mxCell style="html=1;fontSize=11;dashed=0;whiteSpace=wrap;fillColor=#083F75;strokeColor=#06315C;fontColor=#ffffff;shape=mxgraph.c4.person2;align=center;metaEdit=1;points=[[0.5,0,0],[1,0.5,0],[1,0.75,0],[0.75,1,0],[0.5,1,0],[0.25,1,0],[0,0.75,0],[0,0.5,0]];resizable=0;" vertex="1" parent="1">
            <mxGeometry x="3480" y="930" width="200" height="180" as="geometry" />
          </mxCell>
        </object>
        <mxCell id="_nLx_mnxx4Ln0NtucxEp-12" style="edgeStyle=orthogonalEdgeStyle;rounded=0;orthogonalLoop=1;jettySize=auto;html=1;exitX=0;exitY=0.75;exitDx=0;exitDy=0;exitPerimeter=0;entryX=0.984;entryY=0.132;entryDx=0;entryDy=0;entryPerimeter=0;" edge="1" parent="1" source="_nLx_mnxx4Ln0NtucxEp-11" target="_nLx_mnxx4Ln0NtucxEp-1">
          <mxGeometry relative="1" as="geometry">
            <Array as="points">
              <mxPoint x="3230" y="825" />
              <mxPoint x="3230" y="988" />
            </Array>
          </mxGeometry>
        </mxCell>
        <mxCell id="_nLx_mnxx4Ln0NtucxEp-13" value="Управление объектами недвижимости&lt;div&gt;с помощью функционала PropDevelopment&lt;/div&gt;&lt;div&gt;и партнеров&lt;/div&gt;" style="edgeLabel;html=1;align=center;verticalAlign=middle;resizable=0;points=[];" vertex="1" connectable="0" parent="_nLx_mnxx4Ln0NtucxEp-12">
          <mxGeometry x="-0.6245" relative="1" as="geometry">
            <mxPoint as="offset" />
          </mxGeometry>
        </mxCell>
        <object placeholders="1" c4Name="Собственник" c4Type="Person" c4Description="Клиент" label="&lt;font style=&quot;font-size: 16px&quot;&gt;&lt;b&gt;%c4Name%&lt;/b&gt;&lt;/font&gt;&lt;div&gt;[%c4Type%]&lt;/div&gt;&lt;br&gt;&lt;div&gt;&lt;font style=&quot;font-size: 11px&quot;&gt;&lt;font color=&quot;#cccccc&quot;&gt;%c4Description%&lt;/font&gt;&lt;/div&gt;" id="_nLx_mnxx4Ln0NtucxEp-11">
          <mxCell style="html=1;fontSize=11;dashed=0;whiteSpace=wrap;fillColor=#083F75;strokeColor=#06315C;fontColor=#ffffff;shape=mxgraph.c4.person2;align=center;metaEdit=1;points=[[0.5,0,0],[1,0.5,0],[1,0.75,0],[0.75,1,0],[0.5,1,0],[0.25,1,0],[0,0.75,0],[0,0.5,0]];resizable=0;" vertex="1" parent="1">
            <mxGeometry x="3470" y="690" width="200" height="180" as="geometry" />
          </mxCell>
        </object>
        <mxCell id="_nLx_mnxx4Ln0NtucxEp-20" style="edgeStyle=orthogonalEdgeStyle;rounded=0;orthogonalLoop=1;jettySize=auto;html=1;exitX=0;exitY=0.75;exitDx=0;exitDy=0;exitPerimeter=0;entryX=1;entryY=0.75;entryDx=0;entryDy=0;" edge="1" parent="1" source="_nLx_mnxx4Ln0NtucxEp-14" target="_nLx_mnxx4Ln0NtucxEp-1">
          <mxGeometry relative="1" as="geometry">
            <Array as="points">
              <mxPoint x="3190" y="1785" />
              <mxPoint x="3190" y="1210" />
            </Array>
          </mxGeometry>
        </mxCell>
        <mxCell id="_nLx_mnxx4Ln0NtucxEp-21" value="Управление бухгалтерским учетом" style="edgeLabel;html=1;align=center;verticalAlign=middle;resizable=0;points=[];" vertex="1" connectable="0" parent="_nLx_mnxx4Ln0NtucxEp-20">
          <mxGeometry x="-0.7523" y="-3" relative="1" as="geometry">
            <mxPoint x="-10" y="-22" as="offset" />
          </mxGeometry>
        </mxCell>
        <object placeholders="1" c4Name="Бухгалтер" c4Type="Person" c4Description="Ведёт бухгалтерский учёт" label="&lt;font style=&quot;font-size: 16px&quot;&gt;&lt;b&gt;%c4Name%&lt;/b&gt;&lt;/font&gt;&lt;div&gt;[%c4Type%]&lt;/div&gt;&lt;br&gt;&lt;div&gt;&lt;font style=&quot;font-size: 11px&quot;&gt;&lt;font color=&quot;#cccccc&quot;&gt;%c4Description%&lt;/font&gt;&lt;/div&gt;" id="_nLx_mnxx4Ln0NtucxEp-14">
          <mxCell style="html=1;fontSize=11;dashed=0;whiteSpace=wrap;fillColor=#083F75;strokeColor=#06315C;fontColor=#ffffff;shape=mxgraph.c4.person2;align=center;metaEdit=1;points=[[0.5,0,0],[1,0.5,0],[1,0.75,0],[0.75,1,0],[0.5,1,0],[0.25,1,0],[0,0.75,0],[0,0.5,0]];resizable=0;" vertex="1" parent="1">
            <mxGeometry x="3470" y="1650" width="200" height="180" as="geometry" />
          </mxCell>
        </object>
        <mxCell id="_nLx_mnxx4Ln0NtucxEp-19" style="edgeStyle=orthogonalEdgeStyle;rounded=0;orthogonalLoop=1;jettySize=auto;html=1;exitX=0;exitY=0.75;exitDx=0;exitDy=0;exitPerimeter=0;entryX=1;entryY=0.5;entryDx=0;entryDy=0;" edge="1" parent="1" source="_nLx_mnxx4Ln0NtucxEp-15" target="_nLx_mnxx4Ln0NtucxEp-1">
          <mxGeometry relative="1" as="geometry">
            <Array as="points">
              <mxPoint x="3230" y="1545" />
              <mxPoint x="3230" y="1120" />
            </Array>
          </mxGeometry>
        </mxCell>
        <mxCell id="_nLx_mnxx4Ln0NtucxEp-33" value="Сопровождение клиентов" style="edgeLabel;html=1;align=center;verticalAlign=middle;resizable=0;points=[];" vertex="1" connectable="0" parent="_nLx_mnxx4Ln0NtucxEp-19">
          <mxGeometry x="-0.7835" y="4" relative="1" as="geometry">
            <mxPoint x="-42" y="-29" as="offset" />
          </mxGeometry>
        </mxCell>
        <object placeholders="1" c4Name="Менеджер" c4Type="Person" c4Description="Работает с клиентами и объектами недвижимости, администрирует онлайн-сделки" label="&lt;font style=&quot;font-size: 16px&quot;&gt;&lt;b&gt;%c4Name%&lt;/b&gt;&lt;/font&gt;&lt;div&gt;[%c4Type%]&lt;/div&gt;&lt;br&gt;&lt;div&gt;&lt;font style=&quot;font-size: 11px&quot;&gt;&lt;font color=&quot;#cccccc&quot;&gt;%c4Description%&lt;/font&gt;&lt;/div&gt;" id="_nLx_mnxx4Ln0NtucxEp-15">
          <mxCell style="html=1;fontSize=11;dashed=0;whiteSpace=wrap;fillColor=#083F75;strokeColor=#06315C;fontColor=#ffffff;shape=mxgraph.c4.person2;align=center;metaEdit=1;points=[[0.5,0,0],[1,0.5,0],[1,0.75,0],[0.75,1,0],[0.5,1,0],[0.25,1,0],[0,0.75,0],[0,0.5,0]];resizable=0;" vertex="1" parent="1">
            <mxGeometry x="3470" y="1410" width="200" height="180" as="geometry" />
          </mxCell>
        </object>
        <object placeholders="1" c4Name="Бизнес-аналитик" c4Type="Person" c4Description="Оптимизирует процессы и развивает прикладные бизнес-системы. Администрирует системы" label="&lt;font style=&quot;font-size: 16px&quot;&gt;&lt;b&gt;%c4Name%&lt;/b&gt;&lt;/font&gt;&lt;div&gt;[%c4Type%]&lt;/div&gt;&lt;br&gt;&lt;div&gt;&lt;font style=&quot;font-size: 11px&quot;&gt;&lt;font color=&quot;#cccccc&quot;&gt;%c4Description%&lt;/font&gt;&lt;/div&gt;" id="_nLx_mnxx4Ln0NtucxEp-16">
          <mxCell style="html=1;fontSize=11;dashed=0;whiteSpace=wrap;fillColor=#083F75;strokeColor=#06315C;fontColor=#ffffff;shape=mxgraph.c4.person2;align=center;metaEdit=1;points=[[0.5,0,0],[1,0.5,0],[1,0.75,0],[0.75,1,0],[0.5,1,0],[0.25,1,0],[0,0.75,0],[0,0.5,0]];resizable=0;" vertex="1" parent="1">
            <mxGeometry x="3470" y="1180" width="200" height="180" as="geometry" />
          </mxCell>
        </object>
        <object placeholders="1" c4Name="Государственные регистрационные органы" c4Type="Software System" c4Description="Отвечают за регистрационные действия с объектами недвижимости" label="&lt;font style=&quot;font-size: 16px&quot;&gt;&lt;b&gt;%c4Name%&lt;/b&gt;&lt;/font&gt;&lt;div&gt;[%c4Type%]&lt;/div&gt;&lt;br&gt;&lt;div&gt;&lt;font style=&quot;font-size: 11px&quot;&gt;&lt;font color=&quot;#cccccc&quot;&gt;%c4Description%&lt;/font&gt;&lt;/div&gt;" id="_nLx_mnxx4Ln0NtucxEp-17">
          <mxCell style="rounded=1;whiteSpace=wrap;html=1;labelBackgroundColor=none;fillColor=#8C8496;fontColor=#ffffff;align=center;arcSize=10;strokeColor=#736782;metaEdit=1;resizable=0;points=[[0.25,0,0],[0.5,0,0],[0.75,0,0],[1,0.25,0],[1,0.5,0],[1,0.75,0],[0.75,1,0],[0.5,1,0],[0.25,1,0],[0,0.75,0],[0,0.5,0],[0,0.25,0]];" vertex="1" parent="1">
            <mxGeometry x="2310" y="930" width="240" height="120" as="geometry" />
          </mxCell>
        </object>
        <mxCell id="_nLx_mnxx4Ln0NtucxEp-18" style="edgeStyle=orthogonalEdgeStyle;rounded=0;orthogonalLoop=1;jettySize=auto;html=1;exitX=0;exitY=0.75;exitDx=0;exitDy=0;exitPerimeter=0;entryX=1.006;entryY=0.384;entryDx=0;entryDy=0;entryPerimeter=0;" edge="1" parent="1" source="_nLx_mnxx4Ln0NtucxEp-16" target="_nLx_mnxx4Ln0NtucxEp-1">
          <mxGeometry relative="1" as="geometry" />
        </mxCell>
        <mxCell id="_nLx_mnxx4Ln0NtucxEp-34" value="Мониторинг и оптимизация&amp;nbsp;&lt;div&gt;бизнес-процессов&lt;/div&gt;" style="edgeLabel;html=1;align=center;verticalAlign=middle;resizable=0;points=[];" vertex="1" connectable="0" parent="_nLx_mnxx4Ln0NtucxEp-18">
          <mxGeometry x="-0.6358" y="1" relative="1" as="geometry">
            <mxPoint y="-16" as="offset" />
          </mxGeometry>
        </mxCell>
        <mxCell id="_nLx_mnxx4Ln0NtucxEp-22" style="edgeStyle=orthogonalEdgeStyle;rounded=0;orthogonalLoop=1;jettySize=auto;html=1;exitX=0;exitY=0.25;exitDx=0;exitDy=0;entryX=1;entryY=0.5;entryDx=0;entryDy=0;entryPerimeter=0;" edge="1" parent="1" source="_nLx_mnxx4Ln0NtucxEp-1" target="_nLx_mnxx4Ln0NtucxEp-17">
          <mxGeometry relative="1" as="geometry" />
        </mxCell>
        <mxCell id="_nLx_mnxx4Ln0NtucxEp-23" value="Изменение параметров&amp;nbsp;&lt;div&gt;объектов недвижимости&lt;/div&gt;" style="edgeLabel;html=1;align=center;verticalAlign=middle;resizable=0;points=[];" vertex="1" connectable="0" parent="_nLx_mnxx4Ln0NtucxEp-22">
          <mxGeometry x="0.6729" y="2" relative="1" as="geometry">
            <mxPoint x="48" y="-2" as="offset" />
          </mxGeometry>
        </mxCell>
        <object placeholders="1" c4Name="Платёжная система" c4Type="Software System" c4Description="Провайдер онлайн-платежей" label="&lt;font style=&quot;font-size: 16px&quot;&gt;&lt;b&gt;%c4Name%&lt;/b&gt;&lt;/font&gt;&lt;div&gt;[%c4Type%]&lt;/div&gt;&lt;br&gt;&lt;div&gt;&lt;font style=&quot;font-size: 11px&quot;&gt;&lt;font color=&quot;#cccccc&quot;&gt;%c4Description%&lt;/font&gt;&lt;/div&gt;" id="_nLx_mnxx4Ln0NtucxEp-27">
          <mxCell style="rounded=1;whiteSpace=wrap;html=1;labelBackgroundColor=none;fillColor=#8C8496;fontColor=#ffffff;align=center;arcSize=10;strokeColor=#736782;metaEdit=1;resizable=0;points=[[0.25,0,0],[0.5,0,0],[0.75,0,0],[1,0.25,0],[1,0.5,0],[1,0.75,0],[0.75,1,0],[0.5,1,0],[0.25,1,0],[0,0.75,0],[0,0.5,0],[0,0.25,0]];" vertex="1" parent="1">
            <mxGeometry x="2300" y="1119" width="240" height="120" as="geometry" />
          </mxCell>
        </object>
        <object placeholders="1" c4Name="Поставщик ресурсов ЖКХ" c4Type="Software System" c4Description="" label="&lt;font style=&quot;font-size: 16px&quot;&gt;&lt;b&gt;%c4Name%&lt;/b&gt;&lt;/font&gt;&lt;div&gt;[%c4Type%]&lt;/div&gt;&lt;br&gt;&lt;div&gt;&lt;font style=&quot;font-size: 11px&quot;&gt;&lt;font color=&quot;#cccccc&quot;&gt;%c4Description%&lt;/font&gt;&lt;/div&gt;" id="_nLx_mnxx4Ln0NtucxEp-28">
          <mxCell style="rounded=1;whiteSpace=wrap;html=1;labelBackgroundColor=none;fillColor=#8C8496;fontColor=#ffffff;align=center;arcSize=10;strokeColor=#736782;metaEdit=1;resizable=0;points=[[0.25,0,0],[0.5,0,0],[0.75,0,0],[1,0.25,0],[1,0.5,0],[1,0.75,0],[0.75,1,0],[0.5,1,0],[0.25,1,0],[0,0.75,0],[0,0.5,0],[0,0.25,0]];" vertex="1" parent="1">
            <mxGeometry x="2220" y="1380" width="240" height="120" as="geometry" />
          </mxCell>
        </object>
        <mxCell id="_nLx_mnxx4Ln0NtucxEp-29" style="edgeStyle=orthogonalEdgeStyle;rounded=0;orthogonalLoop=1;jettySize=auto;html=1;exitX=0;exitY=0.5;exitDx=0;exitDy=0;entryX=1;entryY=0.5;entryDx=0;entryDy=0;entryPerimeter=0;" edge="1" parent="1" source="_nLx_mnxx4Ln0NtucxEp-1" target="_nLx_mnxx4Ln0NtucxEp-27">
          <mxGeometry relative="1" as="geometry" />
        </mxCell>
        <mxCell id="_nLx_mnxx4Ln0NtucxEp-32" value="Проведение онлайн-платежей" style="edgeLabel;html=1;align=center;verticalAlign=middle;resizable=0;points=[];" vertex="1" connectable="0" parent="_nLx_mnxx4Ln0NtucxEp-29">
          <mxGeometry x="0.3977" y="2" relative="1" as="geometry">
            <mxPoint x="22" y="-21" as="offset" />
          </mxGeometry>
        </mxCell>
        <object placeholders="1" c4Name="Поставщик ресурсов ЖКХ" c4Type="Software System" c4Description="." label="&lt;font style=&quot;font-size: 16px&quot;&gt;&lt;b&gt;%c4Name%&lt;/b&gt;&lt;/font&gt;&lt;div&gt;[%c4Type%]&lt;/div&gt;&lt;br&gt;&lt;div&gt;&lt;font style=&quot;font-size: 11px&quot;&gt;&lt;font color=&quot;#cccccc&quot;&gt;%c4Description%&lt;/font&gt;&lt;/div&gt;" id="_nLx_mnxx4Ln0NtucxEp-26">
          <mxCell style="rounded=1;whiteSpace=wrap;html=1;labelBackgroundColor=none;fillColor=#8C8496;fontColor=#ffffff;align=center;arcSize=10;strokeColor=#736782;metaEdit=1;resizable=0;points=[[0.25,0,0],[0.5,0,0],[0.75,0,0],[1,0.25,0],[1,0.5,0],[1,0.75,0],[0.75,1,0],[0.5,1,0],[0.25,1,0],[0,0.75,0],[0,0.5,0],[0,0.25,0]];" vertex="1" parent="1">
            <mxGeometry x="2250" y="1355" width="240" height="120" as="geometry" />
          </mxCell>
        </object>
        <object placeholders="1" c4Name="Поставщик ресурсов ЖКХ" c4Type="Software System" c4Description="" label="&lt;font style=&quot;font-size: 16px&quot;&gt;&lt;b&gt;%c4Name%&lt;/b&gt;&lt;/font&gt;&lt;div&gt;[%c4Type%]&lt;/div&gt;&lt;br&gt;&lt;div&gt;&lt;font style=&quot;font-size: 11px&quot;&gt;&lt;font color=&quot;#cccccc&quot;&gt;%c4Description%&lt;/font&gt;&lt;/div&gt;" id="_nLx_mnxx4Ln0NtucxEp-25">
          <mxCell style="rounded=1;whiteSpace=wrap;html=1;labelBackgroundColor=none;fillColor=#8C8496;fontColor=#ffffff;align=center;arcSize=10;strokeColor=#736782;metaEdit=1;resizable=0;points=[[0.25,0,0],[0.5,0,0],[0.75,0,0],[1,0.25,0],[1,0.5,0],[1,0.75,0],[0.75,1,0],[0.5,1,0],[0.25,1,0],[0,0.75,0],[0,0.5,0],[0,0.25,0]];" vertex="1" parent="1">
            <mxGeometry x="2290" y="1335" width="240" height="120" as="geometry" />
          </mxCell>
        </object>
        <object placeholders="1" c4Name="Поставщик ресурсов ЖКХ" c4Type="Software System" c4Description="" label="&lt;font style=&quot;font-size: 16px&quot;&gt;&lt;b&gt;%c4Name%&lt;/b&gt;&lt;/font&gt;&lt;div&gt;[%c4Type%]&lt;/div&gt;&lt;br&gt;&lt;div&gt;&lt;font style=&quot;font-size: 11px&quot;&gt;&lt;font color=&quot;#cccccc&quot;&gt;%c4Description%&lt;/font&gt;&lt;/div&gt;" id="_nLx_mnxx4Ln0NtucxEp-24">
          <mxCell style="rounded=1;whiteSpace=wrap;html=1;labelBackgroundColor=none;fillColor=#8C8496;fontColor=#ffffff;align=center;arcSize=10;strokeColor=#736782;metaEdit=1;resizable=0;points=[[0.25,0,0],[0.5,0,0],[0.75,0,0],[1,0.25,0],[1,0.5,0],[1,0.75,0],[0.75,1,0],[0.5,1,0],[0.25,1,0],[0,0.75,0],[0,0.5,0],[0,0.25,0]];" vertex="1" parent="1">
            <mxGeometry x="2330" y="1310" width="240" height="120" as="geometry" />
          </mxCell>
        </object>
        <mxCell id="_nLx_mnxx4Ln0NtucxEp-30" style="edgeStyle=orthogonalEdgeStyle;rounded=0;orthogonalLoop=1;jettySize=auto;html=1;exitX=0;exitY=0.75;exitDx=0;exitDy=0;entryX=1;entryY=0.5;entryDx=0;entryDy=0;entryPerimeter=0;" edge="1" parent="1" source="_nLx_mnxx4Ln0NtucxEp-1" target="_nLx_mnxx4Ln0NtucxEp-24">
          <mxGeometry relative="1" as="geometry" />
        </mxCell>
        <mxCell id="_nLx_mnxx4Ln0NtucxEp-31" value="Управление услугами ЖКХ" style="edgeLabel;html=1;align=center;verticalAlign=middle;resizable=0;points=[];" vertex="1" connectable="0" parent="_nLx_mnxx4Ln0NtucxEp-30">
          <mxGeometry x="0.5879" y="1" relative="1" as="geometry">
            <mxPoint x="23" y="-31" as="offset" />
          </mxGeometry>
        </mxCell>
      </root>
    </mxGraphModel>
  </diagram>
</mxfile>
